<svg width="62" height="62" viewBox="0 0 62 62" fill="none" xmlns="http://www.w3.org/2000/svg">
<path fill-rule="evenodd" clip-rule="evenodd" d="M14.0001 41.9999C13.7201 42.1399 13.3901 42.1999 13.0801 42.2599C12.7601 42.3199 12.4301 42.3299 12.1001 42.3399C11.7701 42.3599 11.4401 42.3599 11.1101 42.3499C10.7801 42.3499 10.4501 42.3399 10.1301 42.3199C9.80011 42.2999 9.47011 42.2699 9.15011 42.2199C8.82011 42.1699 8.50011 42.1099 8.18011 42.0299C7.87011 41.9399 7.56011 41.8299 7.26011 41.6999C6.97011 41.5699 6.68011 41.4099 6.41011 41.2299C6.14011 41.0499 5.88011 40.8499 5.64011 40.6299C5.40011 40.4099 5.18011 40.1599 4.98011 39.9099C4.78011 39.6499 4.60011 39.3799 4.45011 39.0899C4.29011 38.8099 4.16011 38.4999 4.05011 38.1999C3.94011 37.8899 3.86011 37.5699 3.80011 37.2499C3.74011 36.9299 3.70011 36.6099 3.67011 36.2799C3.64011 35.9499 3.63011 35.6199 3.62011 35.2899C3.61011 34.9599 3.61011 34.6299 3.61011 34.2999V33.3199V32.3299V31.3399V30.3499V29.3599V28.3699C3.61011 28.0399 3.62011 27.7099 3.63011 27.3799C3.64011 27.0499 3.65011 26.7199 3.69011 26.3999C3.72011 26.0699 3.76011 25.7399 3.83011 25.4199C3.90011 25.1099 3.98011 24.7899 4.10011 24.4799C4.21011 24.1799 4.35011 23.8799 4.50011 23.5999C4.66011 23.3099 4.85011 23.0399 5.05011 22.7899C5.25011 22.5299 5.48011 22.2899 5.72011 22.0799C5.96011 21.8599 6.22011 21.6599 6.50011 21.4899C6.77011 21.3199 7.06011 21.1699 7.36011 21.0399C7.66011 20.9199 7.98011 20.8199 8.29011 20.7399C8.61011 20.6499 8.93011 20.5999 9.26011 20.5499C9.58011 20.5099 9.91011 20.4799 10.2401 20.4699C10.5701 20.4499 10.8901 20.4499 11.2201 20.4499C11.5501 20.4499 11.8801 20.4699 12.2101 20.4799C12.5401 20.4799 12.8701 20.4999 13.2001 20.4999C13.5301 20.5099 13.8601 20.5099 14.1901 20.5099C14.5201 20.5099 14.8501 20.5099 15.1801 20.4999C15.5101 20.4899 15.8401 20.4799 16.1701 20.4799C16.5001 20.4699 16.8301 20.4599 17.1501 20.4499C17.4801 20.4399 17.8201 20.4399 18.1301 20.3999C18.4301 20.3499 18.7701 20.3299 19.0101 20.1999C19.2601 20.0699 19.4801 19.8599 19.6201 19.6099C19.7601 19.3699 19.8001 19.0399 19.8501 18.7299C19.9001 18.4199 19.9001 18.0899 19.9201 17.7599C19.9301 17.4299 19.9301 17.0999 19.9301 16.7699V15.7799V14.7899V13.7999V12.8199C19.9301 12.4899 19.9301 12.1599 19.9401 11.8299C19.9401 11.4999 19.9501 11.1699 19.9701 10.8399C19.9901 10.5099 20.0101 10.1799 20.0501 9.85991C20.1001 9.52991 20.1601 9.20991 20.2401 8.88991C20.3301 8.57991 20.4301 8.26991 20.5601 7.96991C20.6901 7.66991 20.8401 7.37991 21.0201 7.10991C21.1901 6.83991 21.3901 6.56991 21.6101 6.32991C21.8301 6.08991 22.0701 5.86991 22.3201 5.66991C22.5801 5.45991 22.8501 5.27991 23.1401 5.12991C23.4201 4.96991 23.7201 4.83991 24.0301 4.72991C24.3401 4.61991 24.6501 4.53991 24.9701 4.46991C25.2901 4.39991 25.6201 4.35991 25.9501 4.31991C26.2701 4.27991 26.6001 4.24991 26.9301 4.22991C27.2601 4.20991 27.5901 4.19991 27.9201 4.17991C28.2501 4.16991 28.5801 4.16991 28.9101 4.15991H29.9001H30.8801C31.2101 4.15991 31.5401 4.15991 31.8701 4.16991C32.2001 4.17991 32.5301 4.18991 32.8601 4.19991C33.1901 4.20991 33.5201 4.21991 33.8501 4.22991C34.1801 4.24991 34.5101 4.25991 34.8401 4.26991C35.1701 4.28991 35.5001 4.29991 35.8201 4.32991C36.1501 4.36991 36.4801 4.39991 36.8001 4.45991C37.1201 4.52991 37.4401 4.60991 37.7401 4.70991C38.0501 4.81991 38.3501 4.94991 38.6401 5.10991C38.9201 5.25991 39.2001 5.43991 39.4601 5.62991C39.7201 5.82991 39.9601 6.04991 40.1801 6.28991C40.4101 6.51991 40.6101 6.77991 40.7901 7.04991C40.9701 7.31991 41.1301 7.60991 41.2601 7.90991C41.4001 8.19991 41.5101 8.50991 41.6101 8.81991C41.7101 9.12991 41.7901 9.44991 41.8601 9.76991C41.9201 10.0999 41.9701 10.4199 42.0001 10.7499C42.0301 11.0699 42.0401 11.3999 42.0401 11.7299C42.0301 12.0599 42.0101 12.3899 41.9901 12.7099C41.9701 13.0399 41.9401 13.3699 41.9101 13.6999C41.8801 14.0299 41.8601 14.3599 41.8201 14.6799C41.7701 14.9999 41.7401 15.3299 41.6501 15.6299C41.5501 15.9299 41.4201 16.2199 41.2301 16.4699C41.0501 16.7199 40.7901 16.9299 40.5401 17.1099C40.2801 17.2899 39.9801 17.4499 39.7001 17.5399C39.4201 17.6399 39.1001 17.7299 38.8701 17.6799C38.6301 17.6299 38.4201 17.4299 38.2901 17.2099C38.1601 16.9899 38.1301 16.6599 38.0801 16.3599C38.0401 16.0599 38.0401 15.7199 38.0301 15.3999C38.0201 15.0699 38.0301 14.7399 38.0301 14.4099C38.0201 14.0799 38.0301 13.7499 38.0201 13.4199C38.0201 13.0899 38.0201 12.7599 38.0101 12.4299C38.0001 12.0999 37.9901 11.7699 37.9601 11.4499C37.9301 11.1199 37.9101 10.7899 37.8401 10.4799C37.7701 10.1599 37.6901 9.83991 37.5501 9.56991C37.4001 9.29991 37.2101 9.02991 36.9801 8.83991C36.7401 8.64991 36.4401 8.51991 36.1501 8.40991C35.8501 8.30991 35.5201 8.25991 35.2001 8.21991C34.8801 8.17991 34.5501 8.15991 34.2201 8.14991C33.8901 8.12991 33.5601 8.12991 33.2301 8.12991H32.2401H31.2501H30.2601H29.2701H28.2901C27.9601 8.13991 27.6301 8.13991 27.3001 8.15991C26.9701 8.17991 26.6401 8.19991 26.3301 8.25991C26.0101 8.30991 25.6801 8.36991 25.4101 8.50991C25.1301 8.64991 24.8701 8.84991 24.6701 9.07991C24.4701 9.30991 24.3201 9.59991 24.2201 9.89991C24.1101 10.1899 24.0801 10.5199 24.0401 10.8399C24.0001 11.1599 24.0001 11.4899 23.9901 11.8199C23.9701 12.1499 23.9701 12.4799 23.9701 12.8099V13.7999V14.7899V15.7799V16.7699V17.7599V18.7499C23.9601 19.0799 23.9601 19.4099 23.9501 19.7299C23.9301 20.0599 23.9201 20.3899 23.8801 20.7199C23.8401 21.0399 23.7901 21.3699 23.7001 21.6799C23.6101 21.9799 23.5001 22.2899 23.3401 22.5699C23.1901 22.8399 22.9901 23.0999 22.7601 23.3199C22.5301 23.5299 22.2501 23.6999 21.9701 23.8399C21.6801 23.9799 21.3601 24.0699 21.0501 24.1399C20.7401 24.2199 20.4101 24.2499 20.0801 24.2799C19.7601 24.3099 19.4301 24.3199 19.1001 24.3299C18.7701 24.3399 18.4401 24.3399 18.1101 24.3399H17.1201H16.1301H15.1401H14.1501H13.1601C12.8301 24.3399 12.5001 24.3399 12.1701 24.3499C11.8401 24.3499 11.5101 24.3499 11.1801 24.3599C10.8601 24.3799 10.5301 24.3899 10.2101 24.4299C9.89011 24.4799 9.56011 24.5199 9.27011 24.6299C8.98011 24.7399 8.69011 24.9099 8.48011 25.1199C8.26011 25.3299 8.10011 25.6099 7.97011 25.8999C7.84011 26.1799 7.77011 26.5099 7.71011 26.8199C7.65011 27.1399 7.63011 27.4699 7.61011 27.7899C7.59011 28.1199 7.59011 28.4499 7.58011 28.7799C7.57011 29.1099 7.58011 29.4399 7.57011 29.7699V30.7599V31.7499V32.7399C7.58011 33.0699 7.57011 33.3999 7.58011 33.7299C7.58011 34.0599 7.58011 34.3899 7.60011 34.7099C7.62011 35.0399 7.63011 35.3699 7.68011 35.6899C7.73011 36.0099 7.78011 36.3399 7.89011 36.6299C8.01011 36.9199 8.15011 37.2199 8.36011 37.4499C8.56011 37.6699 8.83011 37.8599 9.11011 37.9899C9.39011 38.1199 9.72011 38.1699 10.0401 38.2199C10.3501 38.2799 10.6901 38.2899 11.0101 38.3099C11.3401 38.3299 11.6701 38.3299 12.0001 38.3299C12.3301 38.3399 12.6601 38.3399 12.9901 38.3399C13.3201 38.3399 13.6501 38.3399 13.9801 38.3499C14.3001 38.3599 14.6401 38.3599 14.9401 38.3999C15.2501 38.4399 15.5801 38.4699 15.8001 38.5899C16.0101 38.7099 16.2101 38.8999 16.2301 39.1099C16.2601 39.3299 16.1001 39.6099 15.9701 39.8699C15.8301 40.1199 15.6401 40.3999 15.4401 40.6499C15.2501 40.9099 15.0401 41.1799 14.8001 41.3999C14.5601 41.6299 14.2901 41.8499 14.0001 41.9999ZM36.0001 58.9999C35.6601 59.0499 35.3201 59.0799 35.0001 59.0999C34.6701 59.1199 34.3401 59.1299 34.0001 59.1299C33.6701 59.1399 33.3401 59.1399 33.0101 59.1399H32.0101H31.0201H30.0201C29.6901 59.1399 29.3601 59.1299 29.0201 59.1299C28.6901 59.1199 28.3601 59.1099 28.0301 59.0999C27.7001 59.0799 27.3601 59.0699 27.0301 59.0399C26.7001 59.0199 26.3701 58.9999 26.0401 58.9599C25.7201 58.9099 25.3901 58.8699 25.0701 58.7899C24.7501 58.7199 24.4301 58.6199 24.1301 58.4899C23.8301 58.3699 23.5301 58.2199 23.2501 58.0499C22.9801 57.8799 22.7101 57.6799 22.4601 57.4699C22.2201 57.2499 21.9801 57.0199 21.7701 56.7699C21.5601 56.5099 21.3701 56.2399 21.2101 55.9599C21.0401 55.6799 20.9001 55.3799 20.7801 55.0799C20.6601 54.7699 20.5601 54.4599 20.4801 54.1399C20.4001 53.8199 20.3401 53.4899 20.2901 53.1599C20.2401 52.8399 20.2101 52.5099 20.1901 52.1799C20.1701 51.8499 20.1701 51.5199 20.1701 51.1799C20.1701 50.8499 20.1901 50.5199 20.2101 50.1899C20.2201 49.8599 20.2401 49.5299 20.2601 49.1999C20.2801 48.8699 20.2901 48.5299 20.3101 48.1999C20.3301 47.8699 20.3301 47.5399 20.3701 47.2099C20.4101 46.8899 20.4501 46.5599 20.5501 46.2599C20.6401 45.9499 20.7801 45.6499 20.9601 45.3899C21.1401 45.1299 21.3701 44.8899 21.6101 44.6799C21.8501 44.4799 22.1401 44.2999 22.4101 44.1799C22.6901 44.0699 23.0201 43.9599 23.2701 43.9999C23.5201 44.0299 23.7801 44.1799 23.9401 44.3899C24.1001 44.5899 24.1501 44.9199 24.2101 45.2199C24.2701 45.5199 24.2801 45.8599 24.3001 46.1799C24.3101 46.5099 24.3101 46.8499 24.3201 47.1799V48.1699V49.1699V50.1699C24.3201 50.4999 24.3201 50.8299 24.3301 51.1599C24.3401 51.4899 24.3501 51.8299 24.3801 52.1499C24.4101 52.4799 24.4401 52.8099 24.5301 53.1099C24.6201 53.4199 24.7301 53.7299 24.9101 53.9799C25.0901 54.2299 25.3401 54.4499 25.6101 54.6099C25.8701 54.7599 26.2001 54.8399 26.5101 54.9099C26.8201 54.9799 27.1501 54.9999 27.4801 55.0199C27.8101 55.0499 28.1401 55.0499 28.4701 55.0599C28.8001 55.0699 29.1401 55.0599 29.4701 55.0699H30.4701H31.4601H32.4601C32.7901 55.0699 33.1201 55.0699 33.4501 55.0599C33.7901 55.0599 34.1201 55.0599 34.4501 55.0499C34.7801 55.0399 35.1101 55.0299 35.4401 54.9899C35.7601 54.9499 36.0901 54.9199 36.3901 54.8199C36.6901 54.7199 37.0001 54.5899 37.2301 54.3999C37.4701 54.1999 37.6601 53.9399 37.8001 53.6599C37.9401 53.3799 38.0001 53.0599 38.0701 52.7399C38.1301 52.4199 38.1601 52.0899 38.1901 51.7599C38.2201 51.4299 38.2301 51.0999 38.2401 50.7699C38.2501 50.4399 38.2501 50.1099 38.2601 49.7699V48.7799V47.7799V46.7799V45.7899V44.7899C38.2701 44.4599 38.2601 44.1299 38.2701 43.7999C38.2801 43.4599 38.2801 43.1299 38.3101 42.7999C38.3401 42.4699 38.3601 42.1399 38.4301 41.8299C38.5001 41.5099 38.5901 41.1899 38.7301 40.9099C38.8701 40.6199 39.0601 40.3499 39.2801 40.1299C39.5101 39.8999 39.7701 39.7099 40.0501 39.5499C40.3301 39.3999 40.6501 39.2899 40.9601 39.2099C41.2701 39.1199 41.6001 39.0799 41.9301 39.0399C42.2501 38.9999 42.5901 38.9799 42.9201 38.9699C43.2501 38.9599 43.5801 38.9499 43.9101 38.9499H44.9101H45.9101H46.9001H47.9001H48.9001C49.2301 38.9499 49.5601 38.9499 49.8901 38.9399C50.2201 38.9399 50.5601 38.9399 50.8901 38.9199C51.2201 38.9099 51.5501 38.8999 51.8701 38.8499C52.1901 38.7999 52.5201 38.7599 52.8101 38.6299C53.0901 38.5099 53.3701 38.3299 53.5901 38.1099C53.8001 37.8999 53.9601 37.6099 54.0801 37.3199C54.2101 37.0299 54.2601 36.6999 54.3101 36.3799C54.3601 36.0599 54.3701 35.7299 54.3901 35.3999C54.4101 35.0699 54.4101 34.7399 54.4101 34.3999C54.4201 34.0699 54.4201 33.7399 54.4201 33.4099V32.4099V31.4199V30.4199C54.4201 30.0899 54.4201 29.7599 54.4101 29.4199C54.4101 29.0899 54.4101 28.7599 54.3901 28.4299C54.3701 28.0999 54.3501 27.7699 54.3001 27.4499C54.2401 27.1299 54.1801 26.7999 54.0501 26.5199C53.9201 26.2399 53.7301 25.9599 53.5001 25.7499C53.2701 25.5499 52.9801 25.3899 52.6901 25.2799C52.3901 25.1699 52.0601 25.1399 51.7401 25.0999C51.4101 25.0499 51.0801 25.0499 50.7501 25.0199C50.4301 24.9999 50.0901 24.9899 49.7801 24.9399C49.4801 24.8799 49.1501 24.8399 48.9201 24.6899C48.7001 24.5399 48.5201 24.2999 48.4301 24.0399C48.3401 23.7799 48.3501 23.4399 48.3801 23.1399C48.4001 22.8399 48.4801 22.4999 48.6001 22.2299C48.7301 21.9699 48.9101 21.7099 49.1501 21.5499C49.3801 21.3899 49.7101 21.3299 50.0101 21.2699C50.3201 21.2099 50.6501 21.1999 50.9801 21.1899C51.3101 21.1699 51.6401 21.1799 51.9701 21.1999C52.3001 21.2099 52.6301 21.2399 52.9601 21.2899C53.2801 21.3299 53.6101 21.3999 53.9201 21.4899C54.2401 21.5799 54.5501 21.6899 54.8401 21.8299C55.1401 21.9699 55.4201 22.1399 55.6901 22.3299C55.9601 22.5199 56.2101 22.7299 56.4401 22.9599C56.6701 23.1899 56.8901 23.4399 57.0801 23.7099C57.2601 23.9699 57.4301 24.2599 57.5701 24.5599C57.7201 24.8499 57.8301 25.1599 57.9301 25.4699C58.0201 25.7899 58.0901 26.1099 58.1401 26.4299C58.2001 26.7599 58.2201 27.0899 58.2401 27.4199C58.2701 27.7499 58.2701 28.0799 58.2801 28.4099C58.2801 28.7499 58.2801 29.0799 58.2901 29.4099V30.4099V31.3999V32.3999V33.3999V34.3899C58.2801 34.7199 58.2801 35.0599 58.2801 35.3899C58.2701 35.7199 58.2701 36.0499 58.2501 36.3799C58.2301 36.7099 58.2101 37.0499 58.1701 37.3699C58.1201 37.6999 58.0701 38.0199 57.9801 38.3399C57.8901 38.6599 57.7801 38.9699 57.6501 39.2699C57.5201 39.5599 57.3601 39.8599 57.1801 40.1299C56.9901 40.3999 56.7901 40.6599 56.5701 40.8999C56.3401 41.1399 56.1001 41.3599 55.8401 41.5599C55.5801 41.7599 55.3001 41.9299 55.0101 42.0899C54.7201 42.2399 54.4201 42.3699 54.1101 42.4799C53.8001 42.5899 53.4801 42.6699 53.1501 42.7299C52.8301 42.7899 52.5001 42.8299 52.1701 42.8599C51.8401 42.8899 51.5101 42.8999 51.1801 42.9099C50.8501 42.9199 50.5201 42.9199 50.1801 42.9199H49.1901C48.8601 42.9299 48.5201 42.9199 48.1901 42.9199C47.8601 42.9299 47.5301 42.9199 47.2001 42.9299C46.8601 42.9299 46.5301 42.9199 46.2001 42.9299C45.8701 42.9299 45.5301 42.9299 45.2001 42.9399C44.8701 42.9399 44.5401 42.9499 44.2201 42.9799C43.9001 43.0199 43.5601 43.0399 43.2901 43.1499C43.0201 43.2599 42.7401 43.4199 42.5701 43.6399C42.4001 43.8599 42.3401 44.1899 42.2701 44.4899C42.2001 44.7899 42.1901 45.1299 42.1701 45.4499C42.1501 45.7799 42.1601 46.1099 42.1501 46.4499V47.4399V48.4399V49.4299V50.4299C42.1401 50.7599 42.1501 51.0899 42.1401 51.4299C42.1401 51.7599 42.1301 52.0899 42.1201 52.4199C42.1001 52.7499 42.0801 53.0799 42.0301 53.4099C41.9901 53.7399 41.9301 54.0599 41.8501 54.3799C41.7601 54.6999 41.6601 55.0099 41.5201 55.3099C41.3901 55.6099 41.2301 55.8999 41.0501 56.1699C40.8701 56.4399 40.6701 56.6999 40.4501 56.9499C40.2301 57.1899 39.9801 57.4099 39.7301 57.6199C39.4701 57.8199 39.2001 57.9999 38.9101 58.1599C38.6201 58.3099 38.3201 58.4399 38.0101 58.5599C37.6901 58.6699 37.3601 58.7499 37.0301 58.8299C36.7001 58.8999 36.3501 58.9599 36.0301 58.9999H36.0001Z" fill="#315887"/>
<path d="M18.9999 52C18.8599 52.06 18.5799 51.94 18.3799 51.87C18.1699 51.8 17.9599 51.69 17.7599 51.57C17.5599 51.46 17.3699 51.32 17.1799 51.19C16.9899 51.05 16.7999 50.9 16.6199 50.75C16.4499 50.59 16.2799 50.43 16.1199 50.26C15.9599 50.08 15.8199 49.9 15.6799 49.71C15.5499 49.52 15.4199 49.32 15.3199 49.11C15.2099 48.9 15.1299 48.68 15.0499 48.46C14.9699 48.24 14.9099 48.01 14.8499 47.78C14.7999 47.55 14.7499 47.32 14.7199 47.09C14.6799 46.86 14.6599 46.62 14.6499 46.39C14.6499 46.16 14.6599 45.92 14.6799 45.69C14.6999 45.45 14.7299 45.22 14.7699 44.99C14.8199 44.76 14.8599 44.52 14.9199 44.3C14.9799 44.07 15.0499 43.84 15.1299 43.62C15.2099 43.4 15.2999 43.19 15.3999 42.97C15.4999 42.76 15.6099 42.55 15.7299 42.35C15.8499 42.14 15.9699 41.94 16.0999 41.75C16.2299 41.55 16.3599 41.35 16.4999 41.16C16.6399 40.98 16.7899 40.79 16.9399 40.61C17.0899 40.43 17.2499 40.26 17.4099 40.08C17.5699 39.91 17.7299 39.74 17.8999 39.57C18.0699 39.41 18.2399 39.25 18.4199 39.09L18.9599 38.64C19.1499 38.49 19.3299 38.35 19.5199 38.2L20.0899 37.78C20.2799 37.64 20.4699 37.5 20.6599 37.37C20.8599 37.24 21.0599 37.11 21.2499 36.98C21.4499 36.85 21.6499 36.73 21.8599 36.61C22.0599 36.48 22.2599 36.36 22.4599 36.24C22.6699 36.13 22.8699 36.01 23.0799 35.9C23.2899 35.78 23.4999 35.67 23.6999 35.56C23.9099 35.45 24.1199 35.34 24.3299 35.24L24.9599 34.91C25.1699 34.81 25.3899 34.7 25.5999 34.6C25.8099 34.49 26.0199 34.38 26.2299 34.28C26.4399 34.17 26.6499 34.07 26.8599 33.96C27.0699 33.86 27.2899 33.75 27.4999 33.65C27.7099 33.54 27.9199 33.44 28.1299 33.34C28.3499 33.23 28.5599 33.13 28.7699 33.03L29.3999 32.7C29.6099 32.59 29.8199 32.48 30.0199 32.37C30.2299 32.25 30.4399 32.14 30.6399 32.02C30.8399 31.9 31.0499 31.78 31.2499 31.66C31.4499 31.53 31.6499 31.4 31.8399 31.27C32.0399 31.15 32.2399 31.01 32.4299 30.88C32.6299 30.75 32.8199 30.61 33.0099 30.48C33.1999 30.34 33.3999 30.2 33.5799 30.06C33.7699 29.92 33.9599 29.77 34.1399 29.63C34.3299 29.48 34.5099 29.33 34.6899 29.18C34.8599 29.02 35.0499 28.87 35.1899 28.71C35.3399 28.55 35.5199 28.36 35.5699 28.21C35.6199 28.06 35.5899 27.85 35.4899 27.82C35.3899 27.79 35.1499 27.93 34.9699 28.02C34.7799 28.1 34.5799 28.22 34.3799 28.34C34.1799 28.45 33.9699 28.57 33.7699 28.69C33.5699 28.81 33.3599 28.93 33.1599 29.04C32.9499 29.16 32.7399 29.27 32.5299 29.38C32.3299 29.49 32.1199 29.6 31.8999 29.7C31.6899 29.8 31.4799 29.9 31.2599 30C31.0499 30.1 30.8399 30.2 30.6199 30.3C30.4099 30.4 30.1899 30.49 29.9699 30.59C29.7599 30.68 29.5399 30.77 29.3199 30.86C29.0999 30.95 28.8899 31.04 28.6699 31.13C28.4499 31.22 28.2299 31.3 28.0099 31.39C27.7899 31.47 27.5599 31.55 27.3399 31.64C27.1199 31.72 26.8999 31.81 26.6799 31.89C26.4599 31.98 26.2399 32.07 26.0199 32.15C25.7999 32.24 25.5799 32.32 25.3599 32.41C25.1399 32.49 24.9199 32.58 24.6999 32.66C24.4799 32.75 24.2599 32.84 24.0499 32.93C23.8299 33.02 23.6099 33.11 23.3999 33.21C23.1799 33.31 22.9699 33.41 22.7599 33.52C22.5499 33.62 22.3399 33.73 22.1299 33.84C21.9199 33.96 21.7199 34.07 21.5099 34.19L20.9099 34.55C20.7099 34.67 20.5099 34.8 20.3199 34.9C20.1299 34.99 19.9299 35.15 19.7699 35.14C19.6099 35.12 19.4499 34.97 19.3699 34.81C19.2899 34.65 19.2999 34.39 19.2899 34.17C19.2799 33.95 19.2899 33.71 19.2999 33.48C19.3199 33.25 19.3599 33.01 19.3899 32.78C19.4299 32.55 19.4699 32.32 19.5199 32.08C19.5599 31.85 19.6199 31.62 19.6699 31.39C19.7299 31.16 19.7899 30.94 19.8499 30.71C19.9099 30.48 19.9799 30.26 20.0599 30.03C20.1299 29.81 20.2099 29.59 20.2999 29.37C20.3799 29.15 20.4799 28.93 20.5799 28.72C20.6799 28.51 20.7899 28.3 20.8999 28.09C21.0199 27.89 21.1399 27.68 21.2599 27.48C21.3899 27.28 21.5199 27.08 21.6499 26.89C21.7799 26.7 21.9199 26.5 22.0699 26.32C22.2199 26.14 22.3699 25.96 22.5299 25.79C22.6899 25.62 22.8599 25.45 23.0299 25.29C23.1999 25.13 23.3799 24.97 23.5599 24.82C23.7299 24.66 23.9099 24.51 24.0999 24.36C24.2799 24.22 24.4699 24.07 24.6599 23.93C24.8499 23.79 25.0499 23.66 25.2399 23.53C25.4399 23.41 25.6399 23.29 25.8499 23.17C26.0499 23.05 26.2599 22.94 26.4699 22.83C26.6799 22.72 26.8899 22.61 27.0999 22.51C27.3199 22.41 27.5299 22.32 27.7499 22.22C27.9699 22.13 28.1799 22.04 28.3999 21.96C28.6199 21.87 28.8499 21.79 29.0699 21.72C29.2899 21.64 29.5199 21.57 29.7399 21.5C29.9699 21.42 30.1899 21.36 30.4199 21.29C30.6499 21.23 30.8699 21.17 31.0999 21.11C31.3299 21.05 31.5599 21 31.7899 20.95C32.0199 20.9 32.2499 20.85 32.4799 20.79C32.7099 20.74 32.9399 20.69 33.1699 20.64C33.3999 20.58 33.6299 20.53 33.8599 20.48C34.0899 20.43 34.3199 20.38 34.5499 20.33C34.7799 20.28 35.0099 20.23 35.2399 20.18C35.4699 20.12 35.7099 20.07 35.9399 20.02C36.1599 19.96 36.3899 19.91 36.6199 19.85C36.8499 19.8 37.0799 19.74 37.3099 19.67C37.5299 19.61 37.7599 19.53 37.9799 19.46C38.2099 19.39 38.4299 19.32 38.6599 19.24C38.8799 19.17 39.0999 19.09 39.3199 19.01C39.5499 18.93 39.7699 18.84 39.9799 18.75C40.1999 18.66 40.4099 18.55 40.6199 18.44C40.8199 18.33 41.0299 18.21 41.2199 18.08C41.4199 17.95 41.6099 17.81 41.7899 17.66C41.9699 17.51 42.1399 17.35 42.2999 17.17C42.4499 17 42.6099 16.82 42.7399 16.63C42.8599 16.43 42.9699 16.22 43.0499 16C43.1299 15.78 43.1899 15.55 43.2199 15.32C43.2499 15.09 43.2499 14.85 43.2199 14.62C43.1999 14.39 43.1399 14.16 43.0599 13.94C42.9699 13.73 42.8399 13.52 42.7099 13.33C42.5799 13.14 42.3999 12.98 42.2599 12.79C42.1299 12.61 41.9899 12.41 41.9199 12.2C41.8399 11.99 41.8199 11.74 41.8099 11.52C41.7899 11.29 41.7899 11.05 41.8199 10.83C41.8499 10.62 41.8599 10.34 41.9899 10.24C42.1099 10.14 42.3799 10.18 42.5799 10.22C42.7799 10.26 42.9899 10.38 43.1999 10.49C43.3999 10.59 43.5999 10.72 43.7899 10.85C43.9899 10.99 44.1799 11.13 44.3499 11.28C44.5299 11.43 44.6999 11.6 44.8499 11.78C44.9999 11.95 45.1499 12.14 45.2799 12.34C45.4099 12.53 45.5199 12.74 45.6299 12.94C45.7399 13.15 45.8299 13.37 45.9099 13.59C45.9899 13.81 46.0599 14.03 46.1199 14.26C46.1799 14.49 46.2299 14.72 46.2699 14.95C46.3099 15.18 46.3399 15.42 46.3699 15.65C46.3899 15.88 46.4099 16.12 46.4199 16.35C46.4299 16.59 46.4299 16.83 46.4299 17.06C46.4399 17.3 46.4399 17.53 46.4399 17.77C46.4399 18.01 46.4399 18.24 46.4299 18.48C46.4299 18.71 46.4199 18.95 46.4099 19.18C46.3899 19.42 46.3699 19.65 46.3499 19.89C46.3299 20.12 46.3099 20.36 46.2799 20.59C46.2599 20.83 46.2299 21.06 46.2099 21.3C46.1799 21.53 46.1599 21.76 46.1299 22C46.0999 22.23 46.0699 22.47 46.0299 22.7C45.9999 22.93 45.9599 23.16 45.9199 23.4L45.7999 24.09C45.7499 24.32 45.7099 24.56 45.6599 24.79L45.5099 25.48C45.4599 25.71 45.3999 25.94 45.3399 26.17C45.2899 26.4 45.2199 26.62 45.1599 26.85C45.0899 27.08 45.0199 27.3 44.9499 27.53C44.8699 27.75 44.7999 27.97 44.7199 28.19C44.6299 28.42 44.5499 28.64 44.4599 28.85C44.3699 29.07 44.2799 29.29 44.1799 29.51C44.0899 29.72 43.9999 29.94 43.8999 30.15C43.7999 30.37 43.6999 30.58 43.5999 30.79C43.4899 31.01 43.3899 31.22 43.2699 31.42C43.1599 31.63 43.0499 31.84 42.9299 32.04C42.8099 32.24 42.6799 32.44 42.5499 32.64C42.4299 32.84 42.2999 33.04 42.1699 33.23C42.0299 33.43 41.8999 33.62 41.7599 33.81C41.6199 34.01 41.4799 34.2 41.3399 34.39C41.1999 34.57 41.0599 34.76 40.9099 34.94C40.7599 35.13 40.6099 35.31 40.4599 35.49C40.3099 35.67 40.1499 35.85 39.9899 36.02C39.8299 36.19 39.6599 36.36 39.4899 36.52C39.3199 36.68 39.1399 36.83 38.9599 36.99C38.7799 37.14 38.5899 37.28 38.4099 37.43C38.2199 37.57 38.0299 37.71 37.8299 37.84C37.6399 37.98 37.4399 38.1 37.2399 38.23C37.0399 38.35 36.8399 38.47 36.6299 38.59C36.4299 38.7 36.2199 38.82 36.0099 38.92C35.7999 39.03 35.5899 39.14 35.3699 39.24C35.1599 39.33 34.9399 39.43 34.7299 39.52C34.5099 39.6 34.2899 39.68 34.0599 39.76C33.8399 39.83 33.6099 39.9 33.3899 39.96C33.1599 40.03 32.9299 40.09 32.6999 40.14C32.4699 40.2 32.2399 40.25 32.0099 40.31C31.7799 40.36 31.5499 40.41 31.3199 40.45C31.0899 40.5 30.8599 40.54 30.6199 40.58C30.3899 40.62 30.1599 40.66 29.9299 40.69C29.6899 40.73 29.4599 40.76 29.2199 40.78C28.9899 40.81 28.7499 40.82 28.5199 40.84C28.2799 40.86 28.0499 40.88 27.8099 40.9C27.5799 40.92 27.3399 40.94 27.1099 40.97C26.8799 40.99 26.6399 41.02 26.4099 41.04C26.1699 41.05 25.9399 41.07 25.6999 41.08C25.4599 41.1 25.2299 41.1 24.9899 41.11C24.7599 41.13 24.5199 41.14 24.2899 41.16C24.0599 41.19 23.8199 41.23 23.5899 41.26C23.3599 41.3 23.1299 41.35 22.8999 41.4C22.6699 41.45 22.4399 41.5 22.2199 41.56C21.9899 41.62 21.7599 41.69 21.5499 41.78C21.3299 41.86 21.1099 41.95 20.8999 42.06C20.6899 42.16 20.4799 42.28 20.2899 42.4C20.0899 42.53 19.8999 42.67 19.7199 42.82C19.5299 42.96 19.3599 43.13 19.1999 43.29C19.0299 43.46 18.8699 43.63 18.7299 43.82C18.5799 44 18.4299 44.19 18.3099 44.38C18.1899 44.58 18.0799 44.79 17.9899 45.01C17.8999 45.22 17.8299 45.44 17.7699 45.67C17.7099 45.89 17.6699 46.13 17.6399 46.36C17.6199 46.59 17.5999 46.83 17.6099 47.06C17.6199 47.29 17.6599 47.53 17.7199 47.75C17.7799 47.98 17.8499 48.2 17.9599 48.41C18.0599 48.62 18.1899 48.81 18.3399 49C18.4799 49.18 18.6899 49.32 18.8199 49.51C18.9399 49.69 19.0399 49.91 19.0999 50.13C19.1699 50.35 19.1999 50.59 19.2099 50.82C19.2299 51.04 19.2399 51.3 19.1999 51.49C19.1699 51.69 19.1299 51.93 18.9999 52Z" fill="#83B3A3"/>
</svg>
